<?xml version="1.0" encoding="UTF-8"?><svg id="_500_x_1500_px_Logo_1" xmlns="http://www.w3.org/2000/svg" 
viewBox="0 0 129.82 32.72"><defs><style>.cls-1{fill:#fff;}.cls-2{fill:#231f20;}.cls-3{font-family:Vortice-Concept, 'Vortice Concept';font-size:2px;}.cls-3,.cls-4{fill:#4d0a01;}.cls-4{font-family:CooperBlackStd, CooperBlackStd;font-size:4.68px;}.cls-5{letter-spacing:0em;}</style></defs><g id="Background-6"><path class="cls-2" d="M0,3H129.82c0,1.08-.88,1.96-1.96,1.96H0v-1.96H0Z"/><path class="cls-2" d="M0,16.18H129.82c0,1.08-.88,1.96-1.96,1.96H0v-1.96H0Z"/><path class="cls-2" d="M0,9.43H129.82c0,1.08-.88,1.96-1.96,1.96H0v-1.96H0Z"/><path class="cls-2" d="M0,22.93H129.82c0,1.08-.88,1.96-1.96,1.96H0v-1.96H0Z"/><path class="cls-2" d="M0,29.36H129.82c0,1.08-.88,1.96-1.96,1.96H0v-1.96H0Z"/></g><g id="Graphic_Elements_2-3"><path class="cls-1" d="M47.15,10.52h27.92c1.14,0,2.12,.2,2.31,.47l5.24,7.43c.24,.35-.86,.66-2.31,.66H41.91c-1.45,0-2.56-.32-2.31-.66l5.24-7.43c.19-.27,1.17-.47,2.31-.47Z"/><path d="M78.88,0H44.93c-1.39,0-2.58,.38-2.81,.9l-1.68,3.74h42.93l-1.68-3.74c-.23-.52-1.42-.9-2.81-.9Z"/><path d="M81.72,25.04l1.64-19.27c.07-.79-.2-1.47-.63-1.62l-3.09-1.04-2.08,24.36,3.25-.86c.45-.12,.83-.79,.9-1.57Z"/><ellipse cx="36.65" cy="28.6" rx="6.07" ry="3.75" transform="translate(-7.77 14.9) rotate(-20.82)"/><ellipse cx="75.18" cy="28.6" rx="6.07" ry="3.75" transform="translate(-5.26 28.59) rotate(-20.82)"/></g><g id="Text-6"><g><text></text><text class="cls-4" transform="translate(46.5 14.83) scale(1.64 1)"><tspan x="0" y="0">f</tspan><tspan class="cls-5" x="1.37" y="0">a</tspan><tspan x="3.58" y="0">v_song</tspan></text></g><text class="cls-3" transform="translate(57.12 18.1) scale(1.76 1)"><tspan x="0" y="0">API</tspan></text><path d="M42.83,25.04l1.64-19.27c.07-.79-.2-1.47-.63-1.62l-3.09-1.04-2.08,24.36,3.25-.86c.45-.12,.83-.79,.9-1.57Z"/></g></svg>